<svg width="27" height="22" viewBox="0 0 27 22" fill="none" xmlns="http://www.w3.org/2000/svg">
<path d="M26.665 2.45028C25.665 2.93232 24.665 3.10245 23.492 3.25889C24.665 2.60672 25.492 1.62896 25.825 0.325595C24.82 0.920076 23.649 1.37278 22.402 1.6182L22.332 1.62993C21.301 0.63848 19.892 0.0205331 18.336 0H18.332C15.492 0 12.999 2.45126 12.999 5.38455C12.999 5.86659 12.999 6.19316 13.172 6.51876C8.594 6.34471 4.553 4.23372 1.861 1.00514L1.839 0.977764C1.414 1.68762 1.163 2.54023 1.163 3.45053C1.163 3.55711 1.166 3.66368 1.173 3.76928L1.172 3.75462C1.206 5.59086 2.181 7.19732 3.645 8.13598L3.666 8.14869C2.826 8.14869 1.999 7.82309 1.159 7.49652C1.159 10.1042 2.999 12.2289 5.492 12.7109C4.999 12.8801 4.492 12.8801 3.999 12.8801C3.666 12.8801 3.332 12.8801 2.999 12.7109C3.666 14.8356 5.666 16.4656 8.172 16.4656C6.372 17.8882 4.056 18.7486 1.535 18.7486C1.464 18.7486 1.393 18.7477 1.322 18.7467H1.333H0C2.365 20.2221 5.236 21.1217 8.316 21.1842H8.333C18.333 21.1842 23.84 13.0365 23.84 6.02205V5.36988C24.987 4.59745 25.933 3.62262 26.643 2.49134L26.667 2.45028H26.665Z" fill="white"/>
</svg>
