<svg width="27" height="27" viewBox="0 0 27 27" fill="none" xmlns="http://www.w3.org/2000/svg">
<path d="M14.697 0C17.097 0 17.604 0.0263996 18.83 0.0782211C20.243 0.143731 21.217 0.364706 22.057 0.69128C22.937 1.01688 23.684 1.47349 24.417 2.19019C25.164 2.90689 25.617 3.63728 25.964 4.49772C26.297 5.31904 26.511 6.2704 26.577 7.66567C26.644 8.9045 26.657 9.38654 26.657 11.9942V14.0798C26.657 16.6875 26.644 17.1695 26.577 18.4084C26.554 19.5475 26.331 20.6279 25.941 21.6291L25.963 21.5636C25.616 22.4241 25.163 23.1544 24.43 23.8711C23.683 24.6015 22.937 25.0445 22.057 25.3837C21.217 25.7093 20.244 25.9186 18.83 25.9831C17.563 26.0486 17.057 26.0613 14.39 26.0613H12.27C9.603 26.0613 9.11 26.0486 7.83 25.9831C6.665 25.9606 5.56 25.7426 4.536 25.3613L4.603 25.3828C3.68 25.0376 2.893 24.5282 2.244 23.8839L2.243 23.8829C1.577 23.2454 1.051 22.471 0.711 21.6057L0.696 21.5617C0.329 20.6269 0.106 19.5455 0.0829999 18.4162V18.4064C0.0299999 17.3876 0 16.1937 0 14.994C0 14.773 0.000999782 14.5521 0.00299978 14.3321V14.3653V11.6931C0.00299978 9.34645 0.0299999 8.85072 0.0829999 7.65199C0.15 6.2704 0.376 5.31806 0.696 4.49674C1.043 3.63631 1.496 2.90592 2.243 2.18921C2.888 1.53705 3.677 1.02567 4.56 0.70399L4.603 0.690302C5.558 0.327551 6.663 0.104621 7.818 0.0782211H7.83C9.057 0.0263996 9.563 0 11.963 0H14.697ZM14.724 2.34663H11.937C9.63 2.34663 9.137 2.37303 7.937 2.42486C6.644 2.47668 5.937 2.68592 5.47 2.86778C4.843 3.10245 4.403 3.38893 3.937 3.84555C3.471 4.30216 3.177 4.73238 2.937 5.34446C2.764 5.80108 2.537 6.49138 2.484 7.76932C2.431 8.94263 2.404 9.41196 2.404 11.6804V14.3917C2.404 16.6601 2.431 17.1295 2.484 18.3028C2.537 19.567 2.751 20.2583 2.937 20.7149C3.177 21.328 3.47 21.7582 3.937 22.2138C4.404 22.6695 4.844 22.9569 5.47 23.1916C5.937 23.3744 6.643 23.5827 7.95 23.6345C9.243 23.7 9.71 23.7127 12.59 23.7127H14.07C16.963 23.7127 17.417 23.7 18.723 23.6345C20.016 23.5827 20.723 23.3735 21.19 23.1916C21.817 22.9569 22.257 22.6704 22.723 22.2138C23.189 21.7572 23.483 21.327 23.723 20.7149C23.91 20.2583 24.123 19.568 24.176 18.3028C24.243 17.0248 24.256 16.5819 24.256 13.7532V12.3189C24.256 9.49018 24.243 9.03357 24.176 7.75563C24.123 6.49138 23.909 5.8001 23.723 5.34348C23.497 4.75585 23.156 4.25425 22.724 3.84555L22.723 3.84457C22.303 3.4212 21.791 3.08778 21.218 2.87561L21.19 2.86681C20.458 2.59694 19.612 2.43561 18.728 2.42388H18.723C17.695 2.37303 16.492 2.3437 15.281 2.3437C15.085 2.3437 14.889 2.34468 14.693 2.34566H14.723L14.724 2.34663ZM13.337 6.33591C17.118 6.33591 20.184 9.33276 20.184 13.0307C20.184 16.7286 17.119 19.7254 13.337 19.7254C9.556 19.7254 6.49 16.7286 6.49 13.0307C6.49 9.33276 9.555 6.33591 13.337 6.33591ZM13.337 8.68255C10.881 8.68255 8.89 10.6293 8.89 13.0307C8.89 15.4321 10.881 17.3788 13.337 17.3788C15.793 17.3788 17.784 15.4321 17.784 13.0307C17.784 10.6293 15.793 8.68255 13.337 8.68255ZM20.444 4.51043C21.328 4.51043 22.044 5.21051 22.044 6.07485C22.044 6.93919 21.328 7.63927 20.444 7.63927C19.56 7.63927 18.844 6.93919 18.844 6.07485C18.844 5.21051 19.56 4.51043 20.444 4.51043Z" fill="white"/>
</svg>
